<svg width="19" height="17" viewBox="0 0 19 17" fill="none" xmlns="http://www.w3.org/2000/svg">
<path d="M0.863647 15.5453H2.59092M2.59092 15.5453H11.2273M2.59092 15.5453V3.62733C2.59092 2.65997 2.59092 2.17592 2.77918 1.80644C2.94478 1.48143 3.20883 1.21739 3.53384 1.05179C3.90332 0.863525 4.38736 0.863525 5.35473 0.863525H8.46382C9.43118 0.863525 9.91419 0.863525 10.2837 1.05179C10.6087 1.21739 10.8736 1.48143 11.0392 1.80644C11.2273 2.17556 11.2273 2.65902 11.2273 3.62449V8.63625M11.2273 15.5453H16.4091M11.2273 15.5453V8.63625M16.4091 15.5453H18.1364M16.4091 15.5453V8.63625C16.4091 7.83145 16.409 7.42924 16.2775 7.11182C16.1022 6.68859 15.7663 6.35213 15.3431 6.17682C15.0256 6.04534 14.6228 6.04534 13.818 6.04534C13.0132 6.04534 12.6108 6.04534 12.2933 6.17682C11.8701 6.35213 11.5341 6.68859 11.3588 7.11182C11.2273 7.42924 11.2273 7.83144 11.2273 8.63625M5.18183 6.90898H8.63637M5.18183 4.31807H8.63637" stroke="#5A5A5A" stroke-width="1.6" stroke-linecap="round" stroke-linejoin="round"/>
</svg>
