<svg width="20" height="18" viewBox="0 0 20 18" fill="none" xmlns="http://www.w3.org/2000/svg">
<path d="M13.0289 17.1164C13.0289 14.8589 10.2838 13.0289 6.89764 13.0289C3.51145 13.0289 0.766405 14.8589 0.766405 17.1164M14.897 2.98579C15.2766 3.36534 15.5776 3.81595 15.7831 4.31186C15.9885 4.80778 16.0944 5.33963 16.0944 5.8764C16.0944 6.41318 15.9886 6.9436 15.7832 7.43952C15.5777 7.93543 15.2766 8.38656 14.897 8.76612M17.1164 0.766405C17.7873 1.43738 18.3196 2.23393 18.6827 3.1106C19.0458 3.98727 19.2335 4.92672 19.2335 5.87562C19.2335 6.82452 19.0462 7.76435 18.6831 8.64102C18.32 9.51768 17.7873 10.3143 17.1164 10.9853M6.89764 9.96326C4.64018 9.96326 2.81015 8.13323 2.81015 5.87577C2.81015 3.61831 4.64018 1.78828 6.89764 1.78828C9.1551 1.78828 10.9851 3.61831 10.9851 5.87577C10.9851 8.13323 9.1551 9.96326 6.89764 9.96326Z" stroke="#686868" stroke-width="1.5" stroke-linecap="round" stroke-linejoin="round"/>
</svg>
